<?xml version="1.0" encoding="UTF-8" standalone="no"?>
<!-- Created with Inkscape (http://www.inkscape.org/) -->

<svg
   xmlns:dc="http://purl.org/dc/elements/1.1/"
   xmlns:cc="http://creativecommons.org/ns#"
   xmlns:rdf="http://www.w3.org/1999/02/22-rdf-syntax-ns#"
   xmlns:svg="http://www.w3.org/2000/svg"
   xmlns="http://www.w3.org/2000/svg"
   xmlns:sodipodi="http://sodipodi.sourceforge.net/DTD/sodipodi-0.dtd"
   xmlns:inkscape="http://www.inkscape.org/namespaces/inkscape"
   width="210mm"
   height="297mm"
   viewBox="0 0 210 297"
   version="1.1"
   id="svg8"
   inkscape:version="0.92.4 (5da689c313, 2019-01-14)"
   sodipodi:docname="logoFauser.svg"
   inkscape:export-filename="C:\Users\ruben\OneDrive\Ãrea de Trabalho\logoFauser.png"
   inkscape:export-xdpi="96"
   inkscape:export-ydpi="96">
  <defs
     id="defs2" />
  <sodipodi:namedview
     id="base"
     pagecolor="#ffffff"
     bordercolor="#666666"
     borderopacity="1.0"
     inkscape:pageopacity="0.0"
     inkscape:pageshadow="2"
     inkscape:zoom="0.25"
     inkscape:cx="437.73658"
     inkscape:cy="512.90311"
     inkscape:document-units="mm"
     inkscape:current-layer="layer2"
     showgrid="false"
     inkscape:window-width="1366"
     inkscape:window-height="705"
     inkscape:window-x="-8"
     inkscape:window-y="-8"
     inkscape:window-maximized="1"
     showguides="true" />
  <metadata
     id="metadata5">
    <rdf:RDF>
      <cc:Work
         rdf:about="">
        <dc:format>image/svg+xml</dc:format>
        <dc:type
           rdf:resource="http://purl.org/dc/dcmitype/StillImage" />
        <dc:title />
      </cc:Work>
    </rdf:RDF>
  </metadata>
  <g
     inkscape:label="Camada 1"
     inkscape:groupmode="layer"
     id="layer1">
    <circle
       style="opacity:1;fill:#e61919;fill-opacity:1;stroke:none;stroke-width:1.03600001;stroke-linecap:round;stroke-linejoin:round;stroke-miterlimit:9;stroke-dasharray:none;stroke-opacity:1;paint-order:normal"
       id="path4908"
       cx="106.41125"
       cy="81.182434"
       r="64.144684" />
    <rect
       style="opacity:1;fill:#e61919;fill-opacity:1;stroke:none;stroke-width:1.13339829;stroke-linecap:round;stroke-linejoin:round;stroke-miterlimit:9;stroke-dasharray:none;stroke-opacity:1;paint-order:normal"
       id="rect4923"
       width="114.36314"
       height="113.60244"
       x="73.995621"
       y="-77.056915"
       ry="1.6384434"
       transform="matrix(0.69471955,0.71928072,-0.72582011,0.68788457,0,0)" />
    <flowRoot
       xml:space="preserve"
       id="flowRoot850"
       style="font-style:normal;font-weight:normal;font-size:40px;line-height:1.25;font-family:sans-serif;letter-spacing:0px;word-spacing:0px;fill:#000000;fill-opacity:1;stroke:none"
       transform="matrix(0.35063193,0,0,0.31942124,-0.54292283,-24.734778)"><flowRegion
         id="flowRegion852"><rect
           id="rect854"
           width="342.85715"
           height="351.42856"
           x="217.14285"
           y="162.51968" /></flowRegion><flowPara
         id="flowPara856"
         style="font-style:normal;font-variant:normal;font-weight:normal;font-stretch:normal;font-size:306.66665649px;font-family:Heineken;-inkscape-font-specification:Heineken;fill:#ffffff;fill-opacity:1">F</flowPara></flowRoot>  </g>
  <g
     inkscape:groupmode="layer"
     id="layer2"
     inkscape:label="Camada 2">
    <g
       id="g4906"
       transform="matrix(0.51187155,0.27404639,-0.31685975,0.5073651,149.96934,129.11238)">
      <g
         id="g4915"
         transform="translate(-118.15843,-182.79626)">
        <path
           style="fill:none;stroke:#000000;stroke-width:1.02533627;stroke-linecap:butt;stroke-linejoin:miter;stroke-miterlimit:4;stroke-dasharray:none;stroke-opacity:1"
           d="m 66.130214,173.97832 c 0,0 -44.219592,-57.48792 8.382631,-57.50739 51.257645,-0.019 7.905412,57.54793 7.905412,57.54793"
           id="path815"
           inkscape:connector-curvature="0"
           sodipodi:nodetypes="csc" />
        <rect
           style="opacity:1;fill:none;stroke:#000000;stroke-width:1.03600001;stroke-linecap:round;stroke-linejoin:round;stroke-miterlimit:9;stroke-dasharray:none;stroke-opacity:1;paint-order:normal"
           id="rect903"
           width="10.690781"
           height="5.2117558"
           x="68.090271"
           y="195.04478"
           ry="1.4031647" />
        <rect
           style="opacity:1;fill:none;stroke:#000000;stroke-width:1.03600001;stroke-linecap:round;stroke-linejoin:round;stroke-miterlimit:9;stroke-dasharray:none;stroke-opacity:1;paint-order:normal"
           id="rect903-2"
           width="26.761173"
           height="6.9862881"
           x="60.353924"
           y="174.00398"
           ry="1.8809234" />
        <rect
           style="opacity:1;fill:none;stroke:#000000;stroke-width:1.03600001;stroke-linecap:round;stroke-linejoin:round;stroke-miterlimit:9;stroke-dasharray:none;stroke-opacity:1;paint-order:normal"
           id="rect903-2-1"
           width="26.761173"
           height="6.9862881"
           x="60.353924"
           y="180.99026"
           ry="1.8809234" />
        <rect
           style="opacity:1;fill:none;stroke:#000000;stroke-width:1.03600001;stroke-linecap:round;stroke-linejoin:round;stroke-miterlimit:9;stroke-dasharray:none;stroke-opacity:1;paint-order:normal"
           id="rect903-2-16"
           width="26.761173"
           height="6.9862881"
           x="60.353928"
           y="187.97655"
           ry="1.8809234" />
      </g>
      <path
         style="opacity:1;fill:#ffffff;fill-opacity:1;stroke:none;stroke-width:1.97767186;stroke-linecap:round;stroke-linejoin:round;stroke-miterlimit:9;stroke-dasharray:none;stroke-opacity:1;paint-order:normal"
         d="M 490.03915,422.62939 C 470.3109,394.24514 458.8918,366.92255 458.8918,348.10283 c 0,-20.26468 12.42154,-31.87753 37.3624,-34.92999 6.4899,-0.79429 21.81354,-0.64833 28.40642,0.27057 28.9904,4.04061 39.63574,21.37144 31.90656,51.94457 -3.93919,15.58166 -13.554,35.32947 -27.13194,55.72618 l -4.11876,6.18718 h -16.01506 -16.01506 z"
         id="path5630"
         inkscape:connector-curvature="0"
         transform="matrix(0.49379334,0,0,0.48990989,-295.34199,-218.7689)" />
      <path
         style="opacity:1;fill:#ffffff;fill-opacity:1;stroke:none;stroke-width:1.97767186;stroke-linecap:round;stroke-linejoin:round;stroke-miterlimit:9;stroke-dasharray:none;stroke-opacity:1;paint-order:normal"
         d="m 482.91157,440.32094 c -1.07976,-1.54157 -1.07976,-7.83011 0,-9.37168 l 0.78625,-1.12254 h 24.43892 24.43892 l 0.78626,1.12254 c 1.19458,1.70552 1.09735,8.54089 -0.1374,9.65832 -0.83254,0.75343 -3.32114,0.8359 -25.22518,0.8359 h -24.30152 z"
         id="path5632"
         inkscape:connector-curvature="0"
         transform="matrix(0.49379334,0,0,0.48990989,-295.34199,-218.7689)" />
      <path
         style="opacity:1;fill:#ffffff;fill-opacity:1;stroke:none;stroke-width:1.97767186;stroke-linecap:round;stroke-linejoin:round;stroke-miterlimit:9;stroke-dasharray:none;stroke-opacity:1;paint-order:normal"
         d="m 496.7622,481.47077 c -0.95238,-1.20939 -1.07091,-1.89502 -0.91679,-5.3033 l 0.17699,-3.91434 h -5.90551 c -6.75984,0 -8.14,-0.37062 -9.23008,-2.4786 -1.09158,-2.1109 -1.07003,-9.25197 0.0336,-11.12021 0.75043,-1.27038 0.75043,-1.50586 0,-2.95703 -1.20332,-2.32698 -1.12318,-9.4497 0.12945,-11.50381 0.92146,-1.51107 0.92051,-1.56849 -0.0458,-2.76181 -0.86073,-1.06295 -0.96507,-1.85556 -0.81665,-6.20378 0.16178,-4.73978 0.2399,-5.04507 1.58728,-6.20329 1.22324,-1.05152 1.93153,-1.21818 5.17703,-1.21818 2.06795,0 3.75991,-0.10304 3.75991,-0.22897 0,-0.12594 -1.90028,-3.02381 -4.22285,-6.43973 -13.88321,-20.4187 -23.54731,-40.50472 -27.89676,-57.98106 -1.31703,-5.29189 -1.44482,-6.59434 -1.43714,-14.64722 0.008,-8.24686 0.0998,-9.1121 1.37236,-12.91905 2.81596,-8.42396 8.49859,-14.66892 17.17698,-18.87674 9.26912,-4.49424 18.5799,-6.19323 33.94777,-6.19467 15.063,-10e-4 23.85419,1.59222 32.9774,5.97798 8.04805,3.8689 14.33492,10.91424 16.78771,18.81303 6.02854,19.41385 -4.23741,51.02552 -28.23412,86.94059 l -3.54341,5.3033 2.98802,0.25254 c 4.57385,0.38656 5.24538,1.30667 5.45852,7.47901 0.14819,4.29142 0.0428,5.08492 -0.81665,6.14624 -0.96629,1.19332 -0.96724,1.25074 -0.0458,2.76181 1.22399,2.00714 1.33337,9.17567 0.17422,11.41722 -0.69072,1.33572 -0.69072,1.64456 0,2.98029 1.05326,2.03676 1.04613,9.13886 -0.0112,11.18354 -0.42999,0.83152 -1.35392,1.72936 -2.05318,1.99522 -0.69926,0.26586 -4.2681,0.48285 -7.93076,0.4822 l -6.65938,-0.001 0.16463,4.33844 c 0.24603,6.48352 0.63048,6.27052 -11.31793,6.27052 h -9.73405 l -1.09379,-1.38896 z m 20.11236,-0.73236 c 0.35195,-0.35195 0.60609,-2.0388 0.60609,-4.02284 0,-2.86112 -0.15887,-3.50177 -0.97695,-3.93959 -0.55391,-0.29645 -4.39563,-0.52285 -8.87203,-0.52285 -4.47641,0 -8.31813,0.2264 -8.87204,0.52285 -0.83043,0.44443 -0.97695,1.082 -0.97695,4.25106 0,2.50998 0.2063,3.81145 0.63134,3.98296 0.34724,0.14011 4.50655,0.2727 9.2429,0.29463 6.07164,0.0281 8.79031,-0.13889 9.21764,-0.56622 z m 15.75838,-10.65293 c 1.20283,-0.60731 1.26961,-0.87595 1.40868,-5.66702 0.1246,-4.29258 0.018,-5.12311 -0.72788,-5.66848 -1.2706,-0.92908 -49.0834,-0.92908 -50.354,0 -0.74583,0.54537 -0.85248,1.3759 -0.72788,5.66848 0.13907,4.79107 0.20585,5.05971 1.40868,5.66702 0.96214,0.48578 6.79278,0.63753 24.4962,0.63753 17.70342,0 23.53406,-0.15175 24.4962,-0.63753 z m 0.90914,-14.60088 c 0.82553,-0.82553 0.82553,-10.08412 0,-10.90965 -0.87334,-0.87334 -49.93734,-0.87334 -50.81068,0 -0.82553,0.82553 -0.82553,10.08412 0,10.90965 0.87334,0.87334 49.93734,0.87334 50.81068,0 z m -0.45813,-13.99702 c 0.94341,-0.59739 1.56554,-4.72454 1.2091,-8.02092 -0.47346,-4.37843 1.00266,-4.14501 -26.21274,-4.14501 -21.95527,0 -23.90435,0.0693 -24.86327,0.88388 -1.05451,0.89579 -1.2489,2.22626 -1.13857,7.79261 0.0831,4.19416 -1.51568,3.95141 25.96808,3.94268 13.38362,-0.004 24.65045,-0.20821 25.0374,-0.45324 z m -2.0919,-22.14119 c 15.18142,-23.11535 24.82116,-44.60366 27.66754,-61.67483 1.2393,-7.43271 0.84573,-16.49285 -0.95919,-22.08073 -5.06144,-15.66982 -21.10063,-23.4687 -48.20057,-23.43702 -25.44259,0.0297 -41.07683,6.54512 -47.53441,19.80937 -4.86123,9.98526 -4.69225,22.60469 0.51733,38.6331 5.37643,16.54177 16.89607,38.273 29.189,55.06356 l 1.57158,2.14658 h 16.09623 16.09622 z"
         id="path5634"
         inkscape:connector-curvature="0"
         transform="matrix(0.49379334,0,0,0.48990989,-295.34199,-218.7689)" />
      <path
         style="opacity:1;fill:#ffffff;fill-opacity:1;stroke:none;stroke-width:1.97767186;stroke-linecap:round;stroke-linejoin:round;stroke-miterlimit:9;stroke-dasharray:none;stroke-opacity:1;paint-order:normal"
         d="m 482.80467,454.95427 c -0.65919,-1.06599 -0.46312,-9.38337 0.23772,-10.08421 0.913,-0.913 49.2757,-0.913 50.18871,0 0.70084,0.70084 0.89691,9.01822 0.23772,10.08421 -0.56948,0.92091 -50.09468,0.92091 -50.66415,0 z"
         id="path5636"
         inkscape:connector-curvature="0"
         transform="matrix(0.49379334,0,0,0.48990989,-295.34199,-218.7689)" />
      <path
         style="opacity:1;fill:#ffffff;fill-opacity:1;stroke:none;stroke-width:1.97767186;stroke-linecap:round;stroke-linejoin:round;stroke-miterlimit:9;stroke-dasharray:none;stroke-opacity:1;paint-order:normal"
         d="m 483.51427,469.68729 c -1.25349,-0.73009 -1.32892,-10.28729 -0.085,-10.76464 1.04353,-0.40044 48.37134,-0.40044 49.41486,0 0.65375,0.25086 0.79892,1.2113 0.79892,5.28553 0,4.40562 -0.11249,5.03916 -0.97695,5.5018 -1.32838,0.71093 -47.92925,0.68942 -49.15187,-0.0227 z"
         id="path5638"
         inkscape:connector-curvature="0"
         transform="matrix(0.49379334,0,0,0.48990989,-295.34199,-218.7689)" />
      <path
         style="opacity:1;fill:#ffffff;fill-opacity:1;stroke:none;stroke-width:1.97767186;stroke-linecap:round;stroke-linejoin:round;stroke-miterlimit:9;stroke-dasharray:none;stroke-opacity:1;paint-order:normal"
         d="m 493.99889,469.72986 -10.60232,-0.25465 -0.43984,-2.41068 c -0.24191,-1.32587 -0.28431,-3.65553 -0.0942,-5.17703 l 0.34563,-2.76635 10.94907,-0.091 c 14.04957,-0.11676 38.65948,0.15127 38.95786,0.42429 0.46662,0.42695 0.25783,9.22863 -0.2296,9.67904 -0.62229,0.57504 -24.51743,0.9415 -38.88659,0.59637 z"
         id="path5640"
         inkscape:connector-curvature="0"
         transform="matrix(0.49379334,0,0,0.48990989,-295.34199,-218.7689)" />
      <path
         style="opacity:1;fill:#ff0000;fill-opacity:1;stroke:none;stroke-width:1.97767186;stroke-linecap:round;stroke-linejoin:round;stroke-miterlimit:9;stroke-dasharray:none;stroke-opacity:1;paint-order:normal"
         d="m 491.21669,469.74781 -7.82869,-0.2726 -0.44831,-2.8231 c -0.24657,-1.55271 -0.29483,-3.84663 -0.10724,-5.09759 l 0.34108,-2.27447 11.32223,-0.33938 c 6.22722,-0.18665 17.45738,-0.18636 24.9559,6.6e-4 l 13.63369,0.34004 0.33562,2.68624 c 0.1846,1.47744 0.13802,3.77105 -0.10349,5.09692 l -0.43912,2.41068 -8.3302,0.30894 c -9.73719,0.36111 -22.31061,0.3474 -33.33147,-0.0363 z"
         id="path5642"
         inkscape:connector-curvature="0"
         transform="matrix(0.49379334,0,0,0.48990989,-295.34199,-218.7689)" />
      <path
         style="opacity:1;fill:#ffffff;fill-opacity:1;stroke:none;stroke-width:0.69921261;stroke-linecap:round;stroke-linejoin:round;stroke-miterlimit:9;stroke-dasharray:none;stroke-opacity:1;paint-order:normal"
         d="m 497.02721,481.64921 c -1.15387,-1.5898 -1.18146,-1.74273 -1.05394,-5.84199 l 0.11299,-3.63205 -4.68374,-10e-4 c -7.04301,-0.002 -8.6807,-0.27363 -9.84281,-1.6313 -0.87875,-1.02662 -1.19372,-2.31633 -1.30784,-5.3553 -0.12101,-3.22219 0.1283,-5.13446 0.87559,-6.7161 l 0.54129,-1.14565 -0.5463,-1.38247 c -0.70634,-1.78744 -0.91852,-3.15702 -0.92018,-5.93951 -0.002,-2.73196 0.32975,-4.60527 1.05956,-5.98981 0.30001,-0.56915 0.54564,-1.1613 0.54585,-1.31589 1.8e-4,-0.15459 -0.27595,-0.66974 -0.61369,-1.14478 -0.94133,-1.324 -1.06402,-2.14106 -0.92178,-6.13864 0.15872,-4.461 0.28798,-5.08129 1.25327,-6.01422 1.30873,-1.26487 1.72252,-1.37675 5.63973,-1.52473 1.91518,-0.0723 3.50223,-0.13895 3.52679,-0.14799 0.1876,-0.0691 -0.43997,-1.07899 -4.06766,-6.54591 -4.60539,-6.94032 -6.94477,-10.65901 -9.795,-15.57017 -9.18189,-15.82114 -15.76139,-31.57715 -18.66031,-44.6861 -0.56975,-2.57639 -0.77608,-4.44988 -0.91939,-8.34821 l -0.11325,-3.08036 h 0.63941 0.63941 v 0.96322 c 0,2.39136 0.71357,7.47056 1.61969,11.52898 3.8799,17.37761 15.82196,41.65632 30.85391,62.72727 l 2.25854,3.16591 16.18208,0.004 16.18208,0.004 1.66135,-2.54464 c 7.07311,-10.83364 9.0816,-14.02489 11.99745,-19.06249 8.92621,-15.42147 14.95885,-29.33448 18.07943,-41.69643 1.30496,-5.16947 1.82409,-8.38597 2.15435,-13.34821 l 0.11588,-1.74107 h 0.69762 0.69762 l -1.8e-4,1.02678 c -1.2e-4,0.56474 -0.12351,2.11161 -0.2742,3.4375 -1.39995,12.31793 -5.90873,25.84639 -13.83711,41.51786 -4.50482,8.90437 -8.86984,16.33851 -15.29472,26.04875 -2.20122,3.32681 -3.97861,6.06488 -3.94977,6.08459 0.0289,0.0197 1.14391,0.13067 2.47793,0.24656 2.79702,0.24298 3.85824,0.54897 4.62545,1.33369 0.8017,0.82 1.06763,1.97468 1.29323,5.61531 0.25588,4.12925 0.1018,5.36458 -0.82693,6.62977 -0.35323,0.48119 -0.64223,1.04376 -0.64223,1.25015 0,0.20638 0.24539,0.84339 0.54532,1.41556 0.81408,1.55306 1.12057,3.63666 1.01662,6.91134 -0.069,2.17231 -0.15947,2.88107 -0.47887,3.75 -0.81354,2.21323 -0.83443,2.35512 -0.48122,3.26905 0.66939,1.73204 0.85015,2.6899 0.95004,5.03452 0.23486,5.51266 -0.81923,8.20308 -3.43004,8.75468 -0.48934,0.10338 -3.84222,0.23617 -7.45085,0.29508 l -6.56114,0.10712 0.0831,0.91263 c 0.0457,0.50195 0.12043,2.23852 0.1661,3.85906 0.0989,3.51052 -0.0582,4.35242 -0.92046,4.93124 -1.03155,0.69247 -2.37359,0.78333 -11.48892,0.77784 l -8.64612,-0.005 z m 18.86122,-0.53948 c 0.42816,-0.08 0.88913,-0.2561 1.02438,-0.39134 0.38204,-0.38204 0.60964,-1.96678 0.60855,-4.23724 -10e-4,-2.53795 -0.18982,-3.31794 -0.88979,-3.67991 -1.58761,-0.82098 -16.72414,-0.81973 -17.97748,10e-4 -0.71426,0.46801 -0.84532,0.96423 -0.91896,3.47958 -0.0697,2.37895 0.14435,4.35708 0.51104,4.72388 0.40302,0.40313 15.5624,0.49209 17.64226,0.10353 z m 13.01297,-10.54068 c 4.48663,-0.24906 4.80323,-0.44091 5.057,-3.06441 0.0888,-0.91781 0.16347,-2.99465 0.16598,-4.61518 0.005,-3.47133 -0.17464,-4.09547 -1.24488,-4.31619 -3.3239,-0.68549 -45.67094,-0.71777 -49.40797,-0.0377 -1.19274,0.21707 -1.21786,0.32551 -1.20969,5.22139 0.009,5.30457 0.0905,5.71754 1.23992,6.27399 0.6396,0.30962 1.29309,0.41188 3.34524,0.52345 3.7296,0.20278 38.44754,0.21484 42.0544,0.0146 z m 0.17462,-14.654 c 2.18041,-0.0951 4.09113,-0.22152 4.24603,-0.28096 0.49971,-0.19176 0.63832,-0.73525 0.81383,-3.19117 0.18244,-2.55291 -0.0223,-6.95154 -0.35223,-7.56806 -0.099,-0.18493 -0.3105,-0.38634 -0.47006,-0.44757 -1.85721,-0.71268 -47.75269,-0.71288 -50.38064,-1.8e-4 -0.30736,0.0833 -0.44061,0.32621 -0.61168,1.11483 -0.25238,1.16349 -0.31789,6.92318 -0.0964,8.47831 0.21642,1.51974 0.41843,1.65433 2.72998,1.81889 5.81707,0.41412 35.20667,0.46471 44.1212,0.076 z m -1.73224,-14.08987 c 2.99554,-0.0865 5.58407,-0.21124 5.7523,-0.2773 0.91652,-0.35992 1.57998,-4.48457 1.2695,-7.89245 -0.2152,-2.36201 -0.43494,-2.99638 -1.16952,-3.37624 l -0.50676,-0.26206 0.53316,0.94509 c 0.70145,1.24344 0.97977,3.06163 0.85536,5.58795 -0.12175,2.47214 -0.53354,3.82396 -1.27176,4.17493 -0.98579,0.46867 -4.37609,0.53906 -26.39978,0.54812 -13.15352,0.005 -22.09821,0.0749 -22.09821,0.17163 0,0.0894 0.66294,0.21055 1.47321,0.26923 0.81027,0.0587 1.75447,0.13339 2.09822,0.16602 1.42991,0.13576 34.44966,0.0898 39.46428,-0.0549 z m -44.27145,-1.48037 c -0.68576,-1.22574 -0.99548,-3.32678 -0.84734,-5.74801 0.12942,-2.11523 0.42429,-3.21506 1.09918,-4.09989 0.62214,-0.81566 0.3046,-0.84427 -0.40466,-0.0365 -0.7316,0.83325 -0.93287,2.16182 -0.93287,6.15786 0,3.40338 0.12236,4.04835 0.84821,4.47113 0.68676,0.4 0.75615,0.18244 0.23748,-0.74463 z m 47.84288,-10.73005 c -1.15595,-0.28748 -45.33691,-0.2891 -46.33929,-0.002 -0.54595,0.15654 4.92479,0.20442 23.21429,0.20317 18.01318,-10e-4 23.72992,-0.051 23.125,-0.20147 z"
         id="path5644"
         inkscape:connector-curvature="0"
         transform="matrix(0.49379334,0,0,0.48990989,-295.34199,-218.7689)" />
      <path
         style="opacity:1;fill:#ffffff;fill-opacity:1;stroke:none;stroke-width:0.98883593;stroke-linecap:round;stroke-linejoin:round;stroke-miterlimit:9;stroke-dasharray:none;stroke-opacity:1;paint-order:normal"
         d="m 491.61224,469.68 c -5.10255,-0.16054 -8.01118,-0.3468 -8.11814,-0.51987 -0.42379,-0.68569 -0.77377,-5.92468 -0.51682,-7.73627 0.14477,-1.02065 0.30578,-1.8983 0.3578,-1.95032 0.052,-0.052 5.18655,-0.22937 11.41007,-0.39409 8.76726,-0.23206 14.33519,-0.23109 24.72466,0.004 7.37506,0.16711 13.43837,0.33302 13.47404,0.36868 0.0357,0.0357 0.18024,1.08347 0.32127,2.32845 0.23943,2.1136 0.0764,5.2004 -0.36818,6.97183 l -0.1606,0.63988 -4.08568,0.16179 c -7.66848,0.30369 -29.07148,0.37626 -37.03842,0.1256 z"
         id="path5646"
         inkscape:connector-curvature="0"
         transform="matrix(0.49379334,0,0,0.48990989,-295.34199,-218.7689)" />
      <path
         style="opacity:1;fill:#ff0000;fill-opacity:1;stroke:none;stroke-width:2.79685044;stroke-linecap:round;stroke-linejoin:round;stroke-miterlimit:9;stroke-dasharray:none;stroke-opacity:1;paint-order:normal"
         d="m 498.89969,480.63401 c -0.2619,-0.2619 -0.47619,-1.99537 -0.47619,-3.85215 0,-2.41951 0.3201,-3.49879 1.12985,-3.80952 1.46945,-0.56388 14.84228,-0.56388 16.31173,0 1.59643,0.61261 1.59643,7.09169 0,7.7043 -1.53725,0.5899 -16.37013,0.55263 -16.96539,-0.0426 z"
         id="path5648"
         inkscape:connector-curvature="0"
         transform="matrix(0.49379334,0,0,0.48990989,-295.34199,-218.7689)" />
      <path
         style="opacity:1;fill:#ff0000;fill-opacity:1;stroke:none;stroke-width:1.97767186;stroke-linecap:round;stroke-linejoin:round;stroke-miterlimit:9;stroke-dasharray:none;stroke-opacity:1;paint-order:normal"
         d="m 499.76656,480.76726 c -1.11227,-0.32069 -1.68763,-3.30065 -1.09718,-5.68262 0.42835,-1.728 0.57883,-1.83238 3.22722,-2.2385 3.53815,-0.54256 13.59804,-0.0784 14.33798,0.66149 0.7835,0.7835 0.71191,5.86626 -0.094,6.67319 -0.46964,0.47026 -2.7631,0.68213 -8.08122,0.74656 -4.084,0.0495 -7.81577,-0.0226 -8.29281,-0.16012 z"
         id="path5650"
         inkscape:connector-curvature="0"
         transform="matrix(0.49379334,0,0,0.48990989,-295.34199,-218.7689)" />
      <path
         style="opacity:1;fill:#ff0000;fill-opacity:1;stroke:none;stroke-width:1.97767186;stroke-linecap:round;stroke-linejoin:round;stroke-miterlimit:9;stroke-dasharray:none;stroke-opacity:1;paint-order:normal"
         d="m 499.18928,480.33079 c -1.04236,-1.04236 -1.11275,-5.2248 -0.11099,-6.59417 0.65712,-0.89824 1.38024,-0.98042 8.62718,-0.98042 8.99544,0 9.34342,0.15049 9.34342,4.04061 0,3.84776 -0.37593,4.01885 -9.23154,4.20141 -6.69699,0.13806 -7.91696,0.0437 -8.62807,-0.66743 z"
         id="path5652"
         inkscape:connector-curvature="0"
         transform="matrix(0.49379334,0,0,0.48990989,-295.34199,-218.7689)" />
      <path
         style="opacity:1;fill:#ff0000;fill-opacity:1;stroke:none;stroke-width:1.97767186;stroke-linecap:round;stroke-linejoin:round;stroke-miterlimit:9;stroke-dasharray:none;stroke-opacity:1;paint-order:normal"
         d="m 499.15476,480.29627 c -1.0089,-1.0089 -1.05789,-5.21815 -0.0763,-6.55965 0.65642,-0.89714 1.37921,-0.98042 8.5091,-0.98042 9.36289,0 9.57735,0.0971 9.3579,4.23515 -0.20404,3.84765 -0.7668,4.08174 -9.8357,4.09116 -5.84382,0.006 -7.30728,-0.13856 -7.95495,-0.78624 z"
         id="path5654"
         inkscape:connector-curvature="0"
         transform="matrix(0.49379334,0,0,0.48990989,-295.34199,-218.7689)" />
      <path
         style="opacity:1;fill:#ff0000;fill-opacity:1;stroke:none;stroke-width:1.97767186;stroke-linecap:round;stroke-linejoin:round;stroke-miterlimit:9;stroke-dasharray:none;stroke-opacity:1;paint-order:normal"
         d="m 498.88391,480.11301 c -0.75752,-1.41543 -0.64131,-5.23397 0.19405,-6.37639 0.65602,-0.89716 1.3786,-0.98042 8.50867,-0.98042 9.36344,0 9.57822,0.0972 9.35878,4.23515 -0.20498,3.86547 -0.73934,4.08178 -10.10655,4.09116 -6.83519,0.007 -7.47409,-0.071 -7.95495,-0.9695 z"
         id="path5656"
         inkscape:connector-curvature="0"
         transform="matrix(0.49379334,0,0,0.48990989,-295.34199,-218.7689)" />
      <path
         style="opacity:1;fill:#ff0000;fill-opacity:1;stroke:none;stroke-width:0.69921261;stroke-linecap:round;stroke-linejoin:round;stroke-miterlimit:9;stroke-dasharray:none;stroke-opacity:1;paint-order:normal"
         d="m 502.9778,480.99961 c -1.81696,-0.067 -3.48309,-0.18123 -3.7025,-0.25377 -1.12403,-0.37162 -1.24337,-6.09005 -0.15355,-7.35704 0.35249,-0.40979 0.58892,-0.47584 2.25881,-0.631 2.39364,-0.2224 13.662,-0.0817 14.29785,0.17855 0.25765,0.10545 0.65944,0.49892 0.89286,0.87439 0.3881,0.62428 0.42423,0.87354 0.42256,2.9148 -0.002,1.97862 -0.0481,2.31916 -0.40909,2.99826 -0.23002,0.43273 -0.60625,0.84179 -0.86454,0.93999 -0.83878,0.3189 -8.04974,0.50895 -12.7424,0.33582 z"
         id="path5658"
         inkscape:connector-curvature="0"
         transform="matrix(0.49379334,0,0,0.48990989,-295.34199,-218.7689)" />
      <path
         style="opacity:1;fill:#ff0000;fill-opacity:1;stroke:none;stroke-width:0.69921261;stroke-linecap:round;stroke-linejoin:round;stroke-miterlimit:9;stroke-dasharray:none;stroke-opacity:1;paint-order:normal"
         d="m 502.3528,481.01611 c -1.57142,-0.0739 -2.99689,-0.19377 -3.1677,-0.26649 -0.51588,-0.21965 -0.76102,-1.46244 -0.75855,-3.84551 0.002,-1.86547 0.0606,-2.34948 0.35715,-2.94643 0.62939,-1.26702 0.50651,-1.25 9.02346,-1.25 6.95021,0 7.63803,0.0268 8.07664,0.31418 0.78431,0.51398 1.08198,1.30304 1.16529,3.08895 0.0967,2.07194 -0.20103,3.55766 -0.84107,4.1977 -0.42772,0.42772 -0.65658,0.49254 -2.07864,0.58874 -2.88678,0.19528 -8.86617,0.25563 -11.77658,0.11886 z"
         id="path5660"
         inkscape:connector-curvature="0"
         transform="matrix(0.49379334,0,0,0.48990989,-295.34199,-218.7689)" />
      <path
         style="opacity:1;fill:#ff0000;fill-opacity:1;stroke:none;stroke-width:0.69921261;stroke-linecap:round;stroke-linejoin:round;stroke-miterlimit:9;stroke-dasharray:none;stroke-opacity:1;paint-order:normal"
         d="m 501.81709,481.00417 c -1.17857,-0.0677 -2.28758,-0.13396 -2.46447,-0.14728 -0.64056,-0.0482 -0.91462,-1.17036 -0.92177,-3.77421 -0.006,-2.0621 0.045,-2.51401 0.35053,-3.125 0.63354,-1.26709 0.51013,-1.25 9.02582,-1.25 8.44038,0 8.20349,-0.0322 8.86484,1.20704 0.46173,0.86525 0.52492,4.20266 0.10196,5.38557 -0.5181,1.449 -0.71598,1.52255 -4.60769,1.71254 -3.72952,0.18208 -7.07684,0.17928 -10.34922,-0.009 z"
         id="path5662"
         inkscape:connector-curvature="0"
         transform="matrix(0.49379334,0,0,0.48990989,-295.34199,-218.7689)" />
      <path
         style="opacity:1;fill:#ff0000;fill-opacity:1;stroke:none;stroke-width:1.39842522;stroke-linecap:round;stroke-linejoin:round;stroke-miterlimit:9;stroke-dasharray:none;stroke-opacity:1;paint-order:normal"
         d="m 499.22,480.79906 c -1.13069,-0.74048 -1.17977,-6.54911 -0.0648,-7.66465 0.29071,-0.29085 2.80632,-0.41529 8.39535,-0.41529 9.69299,0 9.48443,-0.0867 9.48443,3.94435 0,2.01068 -0.15128,2.77064 -0.68214,3.42679 -0.67554,0.83499 -0.7593,0.84406 -8.66071,0.93759 -4.38822,0.0519 -8.2007,-0.051 -8.47217,-0.22879 z"
         id="path5666"
         inkscape:connector-curvature="0"
         transform="matrix(0.49379334,0,0,0.48990989,-295.34199,-218.7689)" />
      <path
         style="opacity:1;fill:#ffffff;fill-opacity:1;stroke:none;stroke-width:1.39842522;stroke-linecap:round;stroke-linejoin:round;stroke-miterlimit:9;stroke-dasharray:none;stroke-opacity:1;paint-order:normal"
         d="m 499.09263,480.61856 c -1.0843,-1.0843 -1.04169,-6.37932 0.0602,-7.48174 0.29378,-0.29392 2.78234,-0.4177 8.39776,-0.4177 9.69299,0 9.48443,-0.0867 9.48443,3.94435 0,2.01068 -0.15128,2.77064 -0.68214,3.42679 -0.67512,0.83447 -0.76462,0.84425 -8.70582,0.95109 -6.72446,0.0905 -8.10963,0.022 -8.55443,-0.42279 z"
         id="path5668"
         inkscape:connector-curvature="0"
         transform="matrix(0.49379334,0,0,0.48990989,-295.34199,-218.7689)" />
      <path
         style="opacity:1;fill:#ffffff;fill-opacity:1;stroke:none;stroke-width:0.12360449;stroke-linecap:round;stroke-linejoin:round;stroke-miterlimit:9;stroke-dasharray:none;stroke-opacity:1;paint-order:normal"
         d="m 499.97422,472.56513 c 0.64418,-0.0868 2.01734,-0.17314 3.88278,-0.24412 1.3236,-0.0504 6.22097,-0.0504 7.54457,0 1.85211,0.0705 3.2024,0.1549 3.88806,0.24311 0.30298,0.039 0.0469,0.0416 -2.24656,0.0233 -3.27555,-0.0262 -7.32988,-0.0263 -10.73287,-1.1e-4 -2.29835,0.0177 -2.60959,0.0147 -2.33598,-0.0222 z"
         id="path5670"
         inkscape:connector-curvature="0"
         transform="matrix(0.49379334,0,0,0.48990989,-295.34199,-218.7689)" />
      <path
         style="opacity:1;fill:#ffffff;fill-opacity:1;stroke:none;stroke-width:0.12360449;stroke-linecap:round;stroke-linejoin:round;stroke-miterlimit:9;stroke-dasharray:none;stroke-opacity:1;paint-order:normal"
         d="m 534.56519,442.62081 c 0,-0.13547 0.17595,-0.4848 0.37018,-0.73496 0.70354,-0.90614 0.80315,-1.06422 0.9518,-1.51056 0.22584,-0.67811 0.27023,-1.27834 0.24628,-3.33035 -0.0494,-4.23463 -0.28889,-6.16581 -0.90741,-7.31805 -0.55407,-1.03216 -1.51793,-1.54655 -3.37563,-1.80149 -0.44775,-0.0615 -0.88476,-0.10348 -2.96733,-0.28539 l -1.02593,-0.0896 1.72041,-0.003 c 1.81815,-0.004 2.41843,0.0216 2.86926,0.11998 0.86747,0.18933 1.71468,0.6408 2.33429,1.24391 0.71409,0.69509 1.1759,1.53813 1.4025,2.56031 l 0.0704,0.31771 v 3.94591 3.94591 l -0.071,0.32034 c -0.16902,0.76294 -0.47289,1.42854 -0.92023,2.01564 -0.16741,0.21971 -0.63045,0.71026 -0.67043,0.71026 -0.015,0 -0.0272,-0.0478 -0.0272,-0.10624 z"
         id="path5674"
         inkscape:connector-curvature="0"
         transform="matrix(0.49379334,0,0,0.48990989,-295.34199,-218.7689)" />
      <path
         style="opacity:1;fill:#ffffff;fill-opacity:1;stroke:none;stroke-width:0.12360449;stroke-linecap:round;stroke-linejoin:round;stroke-miterlimit:9;stroke-dasharray:none;stroke-opacity:1;paint-order:normal"
         d="m 534.59312,442.66293 c -0.0153,-0.19504 0.12657,-0.45214 0.60171,-1.09055 0.49073,-0.65935 0.57191,-0.79888 0.70997,-1.22036 0.1899,-0.5797 0.21347,-0.82279 0.23035,-2.37584 0.0265,-2.43942 -0.0798,-4.7646 -0.27918,-6.10827 -0.11973,-0.80676 -0.33456,-1.59454 -0.55418,-2.0322 -0.5773,-1.15041 -1.59758,-1.69378 -3.65657,-1.94737 -0.29516,-0.0364 -1.13327,-0.12022 -1.86247,-0.18638 l -1.32583,-0.12029 1.53102,-0.003 c 1.65624,-0.003 2.08545,0.0194 2.57464,0.13686 1.40022,0.33632 2.63102,1.34596 3.23426,2.65312 0.14092,0.30536 0.29097,0.75445 0.37747,1.12975 0.0624,0.27079 0.0639,0.37255 0.0637,4.2458 l -2.5e-4,3.96836 -0.0905,0.36302 c -0.20338,0.81585 -0.50516,1.44028 -0.97865,2.02494 -0.24842,0.30675 -0.57084,0.62194 -0.5755,0.56259 z"
         id="path5676"
         inkscape:connector-curvature="0"
         transform="matrix(0.49379334,0,0,0.48990989,-295.34199,-218.7689)" />
      <path
         style="opacity:1;fill:#ffffff;fill-opacity:1;stroke:none;stroke-width:0.01529528;stroke-linecap:round;stroke-linejoin:round;stroke-miterlimit:9;stroke-dasharray:none;stroke-opacity:1;paint-order:normal"
         d=""
         id="path5678"
         inkscape:connector-curvature="0"
         transform="matrix(0.49379334,0,0,0.48990989,-295.34199,-218.7689)" />
      <path
         style="opacity:1;fill:#ffffff;fill-opacity:1;stroke:none;stroke-width:0.01529528;stroke-linecap:round;stroke-linejoin:round;stroke-miterlimit:9;stroke-dasharray:none;stroke-opacity:1;paint-order:normal"
         d=""
         id="path5680"
         inkscape:connector-curvature="0"
         transform="matrix(0.49379334,0,0,0.48990989,-295.34199,-218.7689)" />
      <path
         style="opacity:1;fill:#ffffff;fill-opacity:1;stroke:none;stroke-width:0.01529528;stroke-linecap:round;stroke-linejoin:round;stroke-miterlimit:9;stroke-dasharray:none;stroke-opacity:1;paint-order:normal"
         d=""
         id="path5682"
         inkscape:connector-curvature="0"
         transform="matrix(0.49379334,0,0,0.48990989,-295.34199,-218.7689)" />
      <path
         style="opacity:1;fill:#ffffff;fill-opacity:1;stroke:none;stroke-width:0.0611811;stroke-linecap:round;stroke-linejoin:round;stroke-miterlimit:9;stroke-dasharray:none;stroke-opacity:1;paint-order:normal"
         d="m 521.40657,429.55116 v -0.10407 l 1.55078,0.0108 c 2.83756,0.0198 5.81584,0.0621 6.23047,0.0884 0.13321,0.008 0.37545,0.0266 0.53832,0.0402 0.79183,0.0664 0.9046,0.0644 -3.8391,0.0666 l -4.48047,0.002 z"
         id="path5684"
         inkscape:connector-curvature="0"
         transform="matrix(0.49379334,0,0,0.48990989,-295.34199,-218.7689)" />
      <path
         style="opacity:1;fill:#ffffff;fill-opacity:1;stroke:none;stroke-width:0.08652315;stroke-linecap:round;stroke-linejoin:round;stroke-miterlimit:9;stroke-dasharray:none;stroke-opacity:1;paint-order:normal"
         d="m 534.21575,435.4562 7.4e-4,-2.62956 0.0407,0.3867 c 0.0961,0.91349 0.11626,1.2972 0.11698,2.23181 3.9e-4,0.51068 -0.0114,1.08838 -0.0265,1.30373 -0.0298,0.42298 -0.11068,1.27952 -0.12418,1.31477 -0.005,0.0122 -0.008,-1.1612 -0.008,-2.60745 z"
         id="path5686"
         inkscape:connector-curvature="0"
         transform="matrix(0.49379334,0,0,0.48990989,-295.34199,-218.7689)" />
    </g>
  </g>
</svg>
